Coordinates
version=1
nRows=37
nColumns=38
inDegrees=no

Units are S.I. units (second, meters, Newtons, ...)
If the header above contains a line with 'inDegrees', this indicates whether rotational values are in degrees (yes) or radians (no).

endheader
time	pelvis_tilt	pelvis_list	pelvis_rotation	pelvis_tx	pelvis_ty	pelvis_tz	hip_flexion_r	hip_adduction_r	hip_rotation_r	knee_angle_r	ankle_angle_r	subtalar_angle_r	mtp_angle_r	hip_flexion_l	hip_adduction_l	hip_rotation_l	knee_angle_l	ankle_angle_l	subtalar_angle_l	mtp_angle_l	lumbar_extension	lumbar_bending	lumbar_rotation	arm_flex_r	arm_add_r	arm_rot_r	elbow_flex_r	pro_sup_r	wrist_flex_r	wrist_dev_r	arm_flex_l	arm_add_l	arm_rot_l	elbow_flex_l	pro_sup_l	wrist_flex_l	wrist_dev_l
1.04	0.430173	1.39384	1.26614	0.856174	1.0298	1.02712	-0.103115	0.0642887	-0.198076	0.246869	-0.132767	0	0	0.433896	-0.0812857	-0.256965	0	-0.220014	0	0	0.0259698	0.0406437	0.0264902	-0.0518055	-0.45328	0.172373	0.91115	1.4319	0	0	-0.204006	-0.0400965	-0.643341	0.472583	1.24326	0	0
1.05	0.416722	1.39764	1.2772	0.853816	1.04297	1.02555	-0.112318	0.0576781	-0.194344	0.261347	-0.13295	0	0	0.433906	-0.0738902	-0.262716	0	-0.215124	0	0	0.0225344	0.0357468	0.0282134	-0.0523525	-0.452287	0.169449	0.911635	1.43319	0	0	-0.202133	-0.0407772	-0.646043	0.470217	1.24114	0	0
1.06	0.403095	1.40261	1.28833	0.851562	1.0565	1.02421	-0.122002	0.0506794	-0.190318	0.277631	-0.13481	0	0	0.432428	-0.0672332	-0.266909	0	-0.216062	0	0	0.0181996	0.0301136	0.0303672	-0.0539796	-0.449967	0.165345	0.910518	1.4339	0	0	-0.200843	-0.0413984	-0.649448	0.468184	1.23606	0	0
1.07	0.389545	1.40928	1.29846	0.849381	1.0703	1.02312	-0.131648	0.042754	-0.186205	0.298417	-0.13986	0	0	0.428824	-0.0612239	-0.271621	0.0117525	-0.225076	0	0	0.0115475	0.0240055	0.0328614	-0.055995	-0.445734	0.158299	0.908271	1.43571	0	0	-0.201067	-0.0423498	-0.650254	0.467314	1.23032	0	0
1.08	0.377949	1.41351	1.30722	0.847129	1.08437	1.0219	-0.138207	0.035984	-0.180687	0.319514	-0.147079	0	0	0.427926	-0.0561661	-0.271808	0.04127	-0.238637	0	0	0.00822978	0.0189999	0.0343687	-0.0593259	-0.441208	0.151803	0.90464	1.4379	0	0	-0.203324	-0.043382	-0.64912	0.466937	1.226	0	0
1.09	0.359161	1.41578	1.32264	0.844897	1.09855	1.02074	-0.140059	0.0282244	-0.173229	0.345142	-0.157771	0	0	0.428719	-0.0500625	-0.266887	0.0646187	-0.263366	0	0	0.00804229	0.0130502	0.0364537	-0.0630798	-0.435172	0.145144	0.897609	1.44051	0	0	-0.20618	-0.0456467	-0.645379	0.464581	1.22346	0	0
1.1	0.328715	1.41545	1.34963	0.84277	1.11263	1.01979	-0.135545	0.0191918	-0.162819	0.376739	-0.171753	0	0	0.433172	-0.0433685	-0.257917	0.083019	-0.293624	0	0	0.0118881	0.00525215	0.0397586	-0.0665791	-0.42695	0.138452	0.884993	1.44335	0	0	-0.207377	-0.0493398	-0.640967	0.457855	1.22059	0	0
1.11	0.290055	1.41272	1.38538	0.840829	1.12652	1.01913	-0.124566	0.00954325	-0.149495	0.414877	-0.188259	0	0	0.441057	-0.0384663	-0.247043	0.103698	-0.313043	0	0	0.0183888	-0.00395621	0.0423764	-0.0684726	-0.416743	0.133091	0.867507	1.44546	0	0	-0.207419	-0.0545001	-0.636364	0.447618	1.21983	0	0
1.12	0.247159	1.40889	1.42672	0.838933	1.14025	1.01876	-0.10879	-0.000994942	-0.134919	0.459108	-0.209522	0	0	0.449959	-0.0353561	-0.235793	0.130671	-0.315603	0	0	0.0254861	-0.0138119	0.042605	-0.0692016	-0.405472	0.128787	0.847952	1.44645	0	0	-0.206954	-0.0591984	-0.635202	0.436941	1.21696	0	0
1.13	0.198449	1.40469	1.4754	0.83685	1.15377	1.01865	-0.0891156	-0.0136153	-0.120816	0.508628	-0.238781	0	0	0.459143	-0.0314935	-0.22407	0.164366	-0.302231	0	0	0.0320741	-0.0246688	0.039623	-0.0687782	-0.393825	0.125784	0.827381	1.44674	0	0	-0.207857	-0.0634719	-0.634619	0.427713	1.21228	0	0
1.14	0.142022	1.40425	1.53281	0.834618	1.16718	1.01916	-0.0715435	-0.0285879	-0.108427	0.559595	-0.273895	0	0	0.46316	-0.0250234	-0.213831	0.200716	-0.284226	0	0	0.0328775	-0.0375642	0.034005	-0.0665465	-0.382089	0.124779	0.806614	1.44443	0	0	-0.209884	-0.0687335	-0.631331	0.419704	1.2116	0	0
1.15	0.0840598	1.40579	1.5933	0.83232	1.18037	1.02	-0.05472	-0.0434666	-0.0970735	0.611699	-0.310002	0	0	0.463675	-0.0167538	-0.203324	0.236468	-0.268036	0	0	0.0306184	-0.0515239	0.028623	-0.0654822	-0.370306	0.12324	0.785666	1.4395	0	0	-0.210224	-0.0711983	-0.638324	0.416253	1.20372	0	0
1.16	0.0306626	1.40817	1.64896	0.830025	1.19335	1.02094	-0.0372488	-0.0567426	-0.0853027	0.66491	-0.349122	0	0	0.461431	-0.00842316	-0.195007	0.268882	-0.251147	0	0	0.0264168	-0.0641832	0.0231804	-0.0642808	-0.359877	0.124004	0.76519	1.4338	0	0	-0.21094	-0.0717975	-0.649055	0.416379	1.1948	0	0
1.17	-0.0127109	1.41034	1.69299	0.827721	1.20605	1.02172	-0.0171688	-0.0677175	-0.072605	0.719692	-0.388994	0	0	0.458075	-0.00114258	-0.190454	0.297267	-0.233661	0	0	0.0215607	-0.0738492	0.0186653	-0.0635793	-0.352208	0.127725	0.747472	1.42788	0	0	-0.212674	-0.0708802	-0.65892	0.41974	1.18821	0	0
1.18	-0.040686	1.41008	1.71904	0.825507	1.21838	1.02208	0.00882713	-0.0759507	-0.0582128	0.775891	-0.43297	0	0	0.45646	0.00421829	-0.189359	0.322362	-0.213332	0	0	0.0192407	-0.0804149	0.0163641	-0.0633958	-0.347622	0.136331	0.731925	1.42068	0	0	-0.215659	-0.068945	-0.66754	0.425543	1.18596	0	0
1.19	-0.0565875	1.40755	1.7298	0.82342	1.23033	1.02208	0.0405094	-0.0824514	-0.0427607	0.832468	-0.478289	0	0	0.455605	0.0081403	-0.18826	0.344	-0.192121	0	0	0.0199548	-0.0843035	0.0182288	-0.0644589	-0.345883	0.148231	0.718171	1.41373	0	0	-0.217842	-0.0662106	-0.674948	0.430813	1.18744	0	0
1.2	-0.0602946	1.40376	1.72512	0.821725	1.24208	1.02198	0.0757577	-0.0863087	-0.0266894	0.886597	-0.526945	0	0	0.453975	0.00969841	-0.186972	0.362328	-0.169995	0	0	0.0228007	-0.0857405	0.0234838	-0.065324	-0.345377	0.163603	0.704406	1.4071	0	0	-0.219506	-0.063104	-0.681256	0.435378	1.19106	0	0
1.21	-0.0556254	1.39986	1.70945	0.820466	1.25374	1.022	0.112119	-0.0875144	-0.0107094	0.936739	-0.571747	0	0	0.450358	0.00900186	-0.186108	0.37756	-0.14797	0	0	0.0263914	-0.0851035	0.0306618	-0.0651187	-0.345346	0.182749	0.690063	1.40143	0	0	-0.220835	-0.059968	-0.686677	0.438805	1.1951	0	0
1.22	-0.0488402	1.39686	1.68993	0.819523	1.26537	1.02236	0.147708	-0.0870916	0.00530712	0.98352	-0.598435	0	0	0.443684	0.00688849	-0.188375	0.388924	-0.12798	0	0	0.0293833	-0.0834185	0.038525	-0.063507	-0.345352	0.205415	0.674389	1.39697	0	0	-0.222075	-0.057132	-0.691029	0.441225	1.19844	0	0
1.23	-0.044143	1.39579	1.67303	0.818713	1.27689	1.02323	0.180049	-0.0859561	0.0198369	1.02572	-0.601899	0	0	0.433069	0.00444191	-0.194178	0.394848	-0.113411	0	0	0.030051	-0.0814716	0.0450714	-0.060551	-0.344245	0.228437	0.657731	1.39491	0	0	-0.222672	-0.0553511	-0.693682	0.441844	1.20055	0	0
1.24	-0.0428099	1.39511	1.66177	0.817901	1.28839	1.0245	0.209974	-0.0849662	0.0311658	1.06285	-0.584708	0	0	0.420481	0.00252884	-0.201639	0.395422	-0.102629	0	0	0.0306956	-0.0804796	0.0481125	-0.0550238	-0.342121	0.256628	0.637652	1.39198	0	0	-0.224059	-0.0547193	-0.695959	0.441446	1.20134	0	0
1.25	-0.0440243	1.39413	1.65424	0.816862	1.30012	1.02601	0.238353	-0.0848751	0.0395578	1.09552	-0.552764	0	0	0.406264	0.000909529	-0.212464	0.390895	-0.0964813	0	0	0.0333069	-0.0798773	0.050951	-0.0509284	-0.339315	0.284453	0.616221	1.39006	0	0	-0.224747	-0.0541439	-0.700664	0.438102	1.19768	0	0
1.26	-0.042863	1.39324	1.64835	0.81548	1.31184	1.02764	0.2648	-0.0851433	0.0433037	1.12397	-0.51048	0	0	0.39154	0.000205832	-0.219937	0.383605	-0.0925918	0	0	0.0361916	-0.0789571	0.049203	-0.0468296	-0.336545	0.314484	0.594911	1.38868	0	0	-0.225977	-0.0540986	-0.706249	0.433814	1.19323	0	0
1.27	-0.0336658	1.39479	1.64014	0.813901	1.32324	1.0295	0.286918	-0.0846371	0.0412142	1.14713	-0.469095	0	0	0.375046	-0.000224518	-0.219214	0.375484	-0.0900965	0	0	0.0349742	-0.0765899	0.0415893	-0.0435926	-0.333484	0.340495	0.577292	1.39179	0	0	-0.227003	-0.0547806	-0.710381	0.430409	1.18953	0	0
1.28	-0.0174394	1.39776	1.62756	0.812082	1.33462	1.03149	0.306262	-0.0841616	0.0343765	1.16515	-0.426825	0	0	0.35696	-0.000853053	-0.215393	0.366391	-0.0880957	0	0	0.0318825	-0.0728295	0.0309345	-0.0413726	-0.331003	0.364749	0.562422	1.3964	0	0	-0.229103	-0.0554139	-0.713026	0.42812	1.18767	0	0
1.29	0.00717643	1.40142	1.60822	0.810095	1.34609	1.03352	0.323364	-0.0830262	0.0247655	1.17722	-0.387054	0	0	0.3379	-0.00229953	-0.210142	0.357349	-0.086202	0	0	0.0282263	-0.0675112	0.0192409	-0.0410925	-0.329059	0.385862	0.549915	1.40073	0	0	-0.231661	-0.0559155	-0.714813	0.426264	1.1876	0	0
1.3	0.0389778	1.40535	1.58261	0.808048	1.35757	1.03557	0.338735	-0.0811762	0.0138012	1.1829	-0.352064	0	0	0.318207	-0.00461991	-0.20518	0.348659	-0.0841984	0	0	0.0243827	-0.0610966	0.00741409	-0.0423542	-0.327208	0.403499	0.538785	1.40375	0	0	-0.233661	-0.0555254	-0.718983	0.424879	1.18544	0	0
1.31	0.0747393	1.40876	1.55229	0.806054	1.36891	1.03755	0.353939	-0.0786223	0.00330104	1.18316	-0.321901	0	0	0.298885	-0.00748493	-0.201551	0.340581	-0.0818697	0	0	0.0206892	-0.0540224	-0.0035246	-0.044211	-0.325547	0.41833	0.528815	1.40496	0	0	-0.235991	-0.0554224	-0.720694	0.423491	1.18527	0	0
1.32	0.115448	1.41145	1.51623	0.80419	1.38012	1.03946	0.369289	-0.075107	-0.00692629	1.17858	-0.297098	0	0	0.279949	-0.0113267	-0.199541	0.3325	-0.0797046	0	0	0.0173166	-0.0460899	-0.01307	-0.0471354	-0.323946	0.429183	0.520097	1.40466	0	0	-0.238796	-0.0560078	-0.718376	0.422153	1.18782	0	0
1.33	0.164797	1.41494	1.47278	0.802403	1.39148	1.0414	0.381579	-0.0703533	-0.0182152	1.1684	-0.274184	0	0	0.25935	-0.0165656	-0.198393	0.323146	-0.0780915	0	0	0.0131132	-0.0374635	-0.0224668	-0.0509535	-0.321709	0.437668	0.510686	1.40192	0	0	-0.241486	-0.0562987	-0.716478	0.421945	1.18824	0	0
1.34	0.214903	1.41719	1.42762	0.800769	1.40271	1.04313	0.394345	-0.0650977	-0.0286518	1.15418	-0.254942	0	0	0.239664	-0.0224145	-0.198149	0.312838	-0.0772784	0	0	0.00971276	-0.0289571	-0.0297561	-0.0557323	-0.319176	0.442593	0.501639	1.39757	0	0	-0.243757	-0.0559573	-0.715726	0.422895	1.18649	0	0
1.35	0.26245	1.41778	1.38399	0.799295	1.41376	1.04459	0.408129	-0.0596908	-0.0384948	1.13614	-0.234771	0	0	0.221611	-0.0284346	-0.197751	0.301822	-0.076935	0	0	0.00730802	-0.0208126	-0.0355565	-0.0604331	-0.316326	0.445947	0.492476	1.39064	0	0	-0.24596	-0.0554002	-0.714636	0.424825	1.18358	0	0
1.36	0.307033	1.41738	1.34282	0.797945	1.42465	1.04582	0.42198	-0.0543092	-0.0482417	1.11426	-0.214738	0	0	0.204585	-0.0344122	-0.197158	0.290606	-0.0768899	0	0	0.00536629	-0.012995	-0.0402916	-0.0650217	-0.313218	0.448009	0.483258	1.38133	0	0	-0.248023	-0.0548676	-0.712817	0.427442	1.18033	0	0
1.37	0.350219	1.41663	1.30353	0.796683	1.4355	1.04689	0.434734	-0.0492002	-0.0590118	1.0885	-0.195228	0	0	0.187847	-0.0404202	-0.197136	0.279577	-0.0770588	0	0	0.00341338	-0.00536553	-0.0447219	-0.0694475	-0.309922	0.4497	0.473619	1.37082	0	0	-0.249803	-0.0545911	-0.710213	0.430332	1.17719	0	0
1.38	0.39035	1.41544	1.26748	0.795446	1.44632	1.04777	0.446484	-0.0445294	-0.0704313	1.0587	-0.177217	0	0	0.171492	-0.0461853	-0.197907	0.269445	-0.0775028	0	0	0.00180927	0.00200419	-0.0485204	-0.0738704	-0.30643	0.450603	0.463222	1.35904	0	0	-0.251044	-0.0545207	-0.707081	0.432906	1.17419	0	0
1.39	0.426369	1.41434	1.23617	0.794271	1.45704	1.04849	0.456802	-0.0406365	-0.0828243	1.0246	-0.161076	0	0	0.155298	-0.0513251	-0.198457	0.259924	-0.0778808	0	0	-0.000267977	0.00862703	-0.052373	-0.0777224	-0.302443	0.45083	0.452242	1.34604	0	0	-0.251683	-0.0548588	-0.703057	0.435643	1.17108	0	0
1.4	0.459191	1.41352	1.20838	0.793035	1.46768	1.04902	0.46542	-0.0374216	-0.0954107	0.986319	-0.1473	0	0	0.138891	-0.0557978	-0.199693	0.250456	-0.0780059	0	0	-0.00289472	0.0148434	-0.0559323	-0.0811027	-0.298591	0.451455	0.441047	1.33289	0	0	-0.251538	-0.05514	-0.699239	0.43838	1.16722	0	0
